<?xml version="1.0" standalone="no"?>
<!DOCTYPE svg PUBLIC "-//W3C//DTD SVG 20010904//EN"
 "http://www.w3.org/TR/2001/REC-SVG-20010904/DTD/svg10.dtd">
<svg version="1.0" xmlns="http://www.w3.org/2000/svg"
 width="1024.000000pt" height="1024.000000pt" viewBox="0 0 1024.000000 1024.000000"
 preserveAspectRatio="xMidYMid meet">

<g transform="translate(0.000000,1024.000000) scale(0.100000,-0.100000)"
fill="#000000" stroke="none">
<path d="M2745 8629 c-204 -15 -430 -106 -603 -245 -163 -131 -286 -346 -321
-564 -7 -44 -11 -874 -11 -2578 0 -2498 0 -2514 21 -2615 25 -127 85 -278 144
-368 136 -204 400 -372 641 -409 47 -7 848 -10 2534 -8 l2465 3 80 22 c44 13
136 50 205 84 113 56 133 70 215 153 148 149 249 325 295 518 20 82 20 118 20
2609 0 2801 5 2603 -65 2777 -52 128 -118 226 -225 332 -136 136 -306 227
-506 272 l-99 23 -2350 0 c-1292 0 -2391 -3 -2440 -6z m4875 -189 c164 -39
288 -107 405 -224 111 -112 180 -237 215 -390 19 -87 20 -126 23 -828 1 -405
-1 -734 -4 -732 -3 2 -109 24 -235 49 -528 107 -929 229 -1299 397 -209 96
-589 309 -758 426 -164 113 -258 196 -487 427 -113 114 -212 211 -222 216 -26
14 -86 11 -121 -6 -18 -9 -61 -52 -97 -95 -35 -44 -69 -80 -74 -80 -36 0 -196
23 -218 32 -16 6 -83 67 -150 137 -67 69 -133 134 -147 143 -51 35 -166 13
-194 -35 -54 -94 -390 -571 -526 -747 -45 -58 -142 -184 -216 -281 -74 -97
-160 -205 -192 -240 -32 -35 -74 -84 -93 -109 -43 -57 -231 -260 -472 -510
-189 -198 -421 -418 -558 -530 -41 -34 -103 -86 -138 -116 -35 -30 -68 -54
-73 -54 -13 0 -12 2377 2 2477 36 265 204 490 454 609 102 49 178 72 280 84
39 5 1134 7 2435 5 l2365 -3 95 -22z m-3392 -1233 l-3 -354 -47 -58 c-27 -31
-48 -61 -48 -66 0 -5 -4 -9 -10 -9 -6 0 -10 124 -10 353 l0 352 53 67 c28 37
56 67 60 67 4 1 7 -158 5 -352z m1185 208 l67 -65 0 -165 c0 -91 -3 -165 -6
-165 -18 0 -152 107 -149 118 3 8 5 88 5 178 0 90 3 164 8 164 4 0 37 -29 75
-65z m-1426 -504 l-3 -339 -57 -74 c-32 -40 -81 -103 -110 -140 -28 -37 -56
-67 -61 -67 -5 -1 -6 134 -2 329 l7 330 36 40 c36 40 68 83 146 197 23 35 43
63 45 63 1 0 1 -153 -1 -339z m1870 131 l53 -35 0 -133 c0 -74 -3 -134 -6
-134 -14 0 -265 173 -282 194 -15 20 -18 46 -20 165 l-3 142 103 -82 c56 -45
126 -98 155 -117z m-984 42 c52 -36 121 -137 142 -207 34 -112 45 -237 45
-505 l0 -264 -27 6 c-53 11 -339 45 -430 52 l-93 7 0 344 0 343 39 78 c40 79
83 130 136 164 46 29 132 21 188 -18z m574 -218 l53 -26 -3 -1090 c-2 -1082
-2 -1091 -22 -1095 -11 -2 -43 -8 -70 -14 -28 -5 -58 -13 -68 -17 -18 -6 -18
5 -13 277 3 156 6 679 6 1163 l0 878 33 -24 c17 -14 56 -37 84 -52z m871 -100
l172 -98 0 -93 c0 -52 -3 -96 -7 -98 -8 -5 -106 37 -330 140 l-123 57 0 127 0
128 58 -33 c31 -18 135 -76 230 -130z m-2687 -291 l1 -320 -109 -118 c-59 -64
-109 -122 -111 -127 -2 -6 -8 -10 -13 -10 -5 0 -9 122 -9 293 l0 294 66 74
c63 71 146 188 160 223 4 9 8 15 10 13 2 -1 4 -147 5 -322z m2065 234 c37 -28
101 -67 141 -87 l73 -36 1 -476 c2 -695 -1 -1290 -8 -1327 -4 -27 -10 -32 -41
-38 -21 -3 -82 -17 -136 -31 -72 -18 -101 -22 -106 -14 -4 7 -5 465 -3 1018 2
554 4 1015 4 1025 -1 9 1 17 3 17 3 0 35 -23 72 -51z m1044 -155 c165 -74 312
-134 328 -134 13 0 15 -29 6 -106 l-6 -50 -92 29 c-50 16 -154 51 -231 77
l-140 48 -1 96 c-1 53 2 96 5 96 3 0 62 -25 131 -56z m-2516 -6 c3 -29 6 -536
6 -1126 0 -849 -3 -1073 -12 -1076 -7 -3 -34 -7 -60 -10 l-47 -6 -3 1078 -3
1077 50 56 c28 31 53 57 56 58 3 0 9 -23 13 -51z m1950 -95 c70 -35 170 -79
220 -100 l92 -37 -1 -710 -1 -710 -60 -12 c-32 -7 -74 -16 -91 -19 l-33 -7 0
110 c0 63 4 113 10 117 18 11 11 54 -12 75 -31 28 -79 26 -108 -5 -22 -24 -23
-28 -11 -58 19 -43 24 -115 16 -202 l-7 -73 -46 -7 c-26 -4 -61 -13 -79 -20
l-31 -13 -4 76 c-6 136 4 1663 11 1660 3 -2 64 -31 135 -65z m1042 -82 c10
-10 333 -103 422 -122 l52 -11 0 -63 0 -62 -82 15 c-127 23 -420 96 -419 105
1 4 1 39 1 77 0 68 5 80 26 61z m-3943 -366 c-3 -183 -6 -224 -20 -245 -21
-31 -205 -210 -217 -210 -5 0 -7 117 -4 269 l4 269 75 80 c41 43 92 104 114
134 l40 55 5 -66 c4 -36 4 -165 3 -286z m712 -679 c0 -563 -2 -1027 -5 -1030
-6 -5 -181 -47 -210 -50 -13 -1 -15 105 -15 894 -1 492 -4 903 -8 913 -5 14
14 40 81 110 48 51 101 113 117 139 17 27 32 48 35 48 3 0 5 -461 5 -1024z
m2870 851 c77 -25 159 -50 183 -57 l42 -11 0 -488 c0 -269 3 -509 6 -535 6
-41 5 -46 -12 -46 -11 0 -50 -11 -88 -24 -39 -14 -74 -23 -78 -20 -13 8 -9
204 4 240 24 67 -38 118 -104 86 -38 -19 -50 -62 -25 -90 12 -14 14 -41 10
-138 l-6 -121 -86 -22 c-48 -11 -90 -21 -94 -21 -8 0 -10 1324 -1 1332 3 4 29
-4 57 -17 29 -12 115 -43 192 -68z m1147 -7 c90 -16 186 -32 215 -36 l51 -6
-1 -59 c-2 -68 -1 -68 -114 -45 -37 8 -126 22 -198 32 -71 10 -133 20 -138 24
-9 8 3 131 14 125 4 -3 81 -18 171 -35z m-648 -137 c71 -19 176 -45 235 -57
l106 -22 1 -336 c1 -184 4 -356 8 -381 l7 -46 -43 -11 c-24 -6 -63 -18 -87
-25 -25 -8 -50 -15 -56 -15 -19 0 -29 236 -11 262 18 25 10 53 -22 78 -32 26
-63 25 -90 0 -23 -22 -29 -69 -12 -86 7 -7 10 -62 8 -144 l-3 -134 -95 -27
c-52 -15 -96 -26 -98 -24 -2 1 -6 231 -9 511 -6 497 -6 507 13 500 10 -4 77
-23 148 -43z m-4437 -340 l-5 -267 -49 -46 c-139 -129 -193 -171 -199 -156 -3
8 -4 120 -2 250 l4 235 41 33 c46 36 166 166 183 198 28 53 32 18 27 -247z
m713 -611 l0 -877 -102 -22 c-57 -11 -111 -24 -120 -28 -17 -7 -18 34 -18 770
l0 777 82 76 c45 42 96 101 115 130 18 28 36 52 38 52 3 0 5 -395 5 -878z
m4340 823 c69 -13 165 -26 213 -30 l88 -7 -3 -273 -3 -272 -69 -16 c-39 -9
-72 -14 -75 -12 -2 3 -5 71 -6 151 -2 155 -3 157 -53 170 -30 8 -76 -24 -80
-55 -2 -13 4 -31 13 -40 13 -15 15 -39 13 -142 l-3 -123 -90 -22 c-49 -13 -92
-20 -95 -18 -3 3 -6 168 -8 366 -3 343 -2 360 15 353 10 -4 74 -17 143 -30z
m-3102 -204 c47 -24 104 -84 131 -137 42 -81 49 -157 54 -594 l5 -416 -81 -20
c-45 -12 -89 -23 -97 -25 -12 -3 -17 17 -24 114 -7 103 -6 120 8 136 54 59
-38 123 -110 76 -28 -18 -32 -59 -8 -93 14 -20 15 -41 9 -142 l-7 -119 -87
-20 c-47 -11 -99 -21 -116 -23 l-30 -3 0 485 c0 435 2 492 18 550 33 122 89
203 160 234 48 21 131 19 175 -3z m-2318 -355 l0 -222 -42 -40 c-77 -73 -197
-164 -203 -154 -4 6 -5 107 -3 225 3 181 5 216 18 220 8 3 60 50 114 104 55
55 103 98 108 95 4 -3 8 -105 8 -228z m720 -500 l0 -725 -57 -11 c-32 -6 -84
-20 -116 -31 -32 -11 -60 -19 -63 -17 -2 3 -4 291 -4 641 l-1 636 113 114 c62
63 116 115 121 116 4 0 7 -325 7 -723z m-1090 201 l0 -214 -99 -66 -100 -66
-3 192 -3 192 35 30 c19 16 62 55 95 87 33 32 63 58 68 58 4 0 7 -96 7 -213z
m735 -418 c0 -530 -2 -599 -15 -599 -19 0 -208 -48 -221 -55 -12 -8 -12 -32
-13 543 -1 467 0 513 15 517 9 3 63 50 120 104 57 54 106 97 109 94 3 -3 5
-274 5 -604z m5346 -470 l1 -794 -1471 -5 -1471 -5 0 250 c0 138 3 347 7 466
l6 215 181 43 c100 24 299 69 444 102 144 32 300 68 345 79 45 10 188 42 317
70 129 28 309 69 400 90 91 22 273 62 405 90 132 28 294 64 360 80 66 16 185
43 265 61 80 17 159 37 175 44 17 7 31 11 32 10 2 -1 3 -359 4 -796z m-5713
284 l-3 -497 -90 -22 c-49 -12 -102 -27 -117 -33 l-28 -11 0 440 c0 254 4 440
9 440 11 0 157 118 190 154 14 14 28 26 33 26 4 0 7 -224 6 -497z m-358 -188
l0 -405 -33 0 c-17 0 -64 -9 -102 -20 -38 -11 -72 -20 -74 -20 -2 0 -1 80 3
178 3 97 3 259 -2 360 -4 106 -3 182 2 182 12 0 113 67 154 102 18 15 37 28
42 28 6 0 10 -151 10 -405z m2034 -562 l-6 -328 -1066 -3 c-587 -2 -1091 0
-1119 3 l-53 6 0 67 0 67 173 43 c154 37 313 73 522 118 39 8 122 28 185 44
63 16 151 36 195 45 91 18 228 49 465 105 91 22 226 53 300 70 74 16 189 43
255 59 66 16 128 29 137 30 17 1 18 -19 12 -326z m643 242 c64 -32 127 -99
161 -173 25 -54 27 -67 30 -229 l4 -173 -276 0 -276 0 0 148 c0 195 23 281 96
362 79 87 170 110 261 65z m-2005 -897 c15 -10 39 -34 55 -55 23 -29 28 -46
28 -88 -2 -105 -78 -169 -201 -168 l-64 0 0 -63 0 -64 -45 0 -45 0 0 233 0
232 123 -5 c94 -4 129 -9 149 -22z m888 -20 l0 -48 -70 0 -71 0 2 -182 1 -183
-46 -3 -46 -3 2 183 3 183 -65 5 -65 5 -3 46 -3 46 180 -1 181 -1 0 -47z m500
9 c0 -54 -12 -62 -80 -59 l-60 3 0 -185 0 -186 -44 0 c-25 0 -47 3 -49 8 -3 4
-2 87 2 185 l6 177 -62 0 c-34 0 -64 3 -66 8 -2 4 -2 24 0 44 l5 38 167 2 c91
2 169 2 174 0 4 -2 7 -18 7 -35z m394 12 l47 -32 -28 -31 c-15 -17 -29 -33
-30 -35 -1 -2 -13 3 -25 11 -43 28 -84 32 -107 9 -12 -12 -21 -29 -21 -40 0
-19 7 -23 112 -61 67 -25 108 -67 108 -112 0 -44 -28 -95 -68 -126 -29 -22
-45 -27 -91 -26 -55 1 -123 24 -166 57 -20 16 -19 16 13 49 28 28 35 31 50 20
60 -43 113 -49 147 -16 33 33 15 57 -59 81 -137 44 -181 137 -104 221 66 71
144 82 222 31z m2606 -80 l0 -99 105 0 105 0 0 100 0 100 43 0 44 0 6 -118 c3
-65 3 -168 0 -230 l-6 -112 -43 0 -44 0 0 90 0 90 -69 0 c-38 0 -83 -3 -100
-6 l-31 -6 0 -79 0 -78 -35 -7 c-63 -11 -61 -18 -58 227 2 123 3 226 3 229 0
3 18 4 40 2 l40 -4 0 -99z m-4030 -129 l0 -230 -29 0 c-63 0 -61 -9 -61 236
l0 224 45 0 45 0 0 -230z m1920 215 c38 -20 68 -60 76 -101 5 -28 1 -41 -20
-69 l-27 -35 37 -32 c34 -30 36 -35 31 -77 -4 -36 -13 -52 -40 -78 -47 -43
-97 -54 -219 -51 l-102 3 -2 228 -2 227 119 0 c86 0 128 -4 149 -15z m358 -7
c-1 -13 -1 -83 0 -156 2 -133 2 -134 31 -163 38 -38 92 -40 136 -5 l30 24 6
159 c3 87 7 159 8 161 0 1 16 2 34 2 l32 0 0 -168 c0 -200 -7 -220 -94 -264
-111 -57 -210 -24 -256 84 -11 28 -15 75 -15 193 l0 155 44 0 c40 0 45 -2 44
-22z m746 13 c71 -17 126 -88 126 -165 0 -48 -12 -66 -61 -91 -16 -9 -29 -18
-29 -21 0 -4 15 -27 34 -53 32 -44 66 -104 66 -116 0 -3 -21 -5 -47 -5 l-48 1
-40 67 -40 67 -68 3 -67 3 0 -71 0 -70 -51 0 -52 0 7 78 c3 42 9 146 13 230
l6 152 106 0 c58 0 123 -5 145 -9z m614 -11 c20 -10 48 -28 62 -39 l25 -20
-28 -28 -28 -28 -39 23 c-96 55 -220 -6 -220 -109 0 -46 34 -111 69 -132 44
-26 138 -23 168 5 33 31 29 47 -17 54 -43 7 -55 25 -45 67 6 23 9 24 37 15 16
-6 52 -8 79 -5 l49 6 0 -82 c0 -81 -1 -82 -33 -108 -57 -46 -93 -59 -160 -59
-52 0 -71 5 -109 29 -135 86 -166 229 -73 339 70 83 184 114 263 72z m-1709
-686 c52 -66 -1 -162 -73 -134 -27 10 -38 35 -38 88 0 67 72 96 111 46z"/>
<path d="M6082 8211 c-39 -14 -71 -30 -69 -36 2 -5 64 -50 138 -100 171 -114
371 -265 366 -278 -3 -11 -253 -96 -282 -97 -27 0 -114 64 -235 172 -129 115
-123 113 -203 80 -37 -15 -67 -33 -67 -40 0 -7 24 -49 54 -95 97 -149 116
-182 107 -185 -5 -2 -36 6 -69 17 -44 15 -68 18 -85 12 -24 -9 -67 -56 -67
-72 0 -12 111 -78 153 -91 40 -12 44 -20 22 -58 -8 -14 -14 -34 -15 -44 0 -18
6 -19 78 -13 90 7 131 20 152 48 13 16 31 20 120 23 110 4 275 41 464 106 49
16 91 28 93 26 2 -2 -5 -41 -16 -87 -30 -122 -71 -338 -71 -370 0 -16 7 -29
17 -33 25 -10 107 21 136 52 20 21 95 139 166 262 5 10 25 15 57 15 59 1 244
49 255 67 12 19 -12 131 -31 143 -5 3 -37 -3 -71 -15 -34 -11 -73 -20 -86 -20
l-24 0 23 42 23 42 145 42 c459 130 549 163 604 222 19 21 30 44 33 75 5 39 2
46 -21 65 -32 25 -107 42 -185 42 -46 0 -107 -17 -306 -85 -137 -47 -252 -88
-256 -92 -4 -5 -2 -34 6 -65 7 -32 10 -60 5 -63 -4 -2 -10 9 -14 25 -10 54
-58 140 -77 140 -10 0 -57 -18 -104 -40 -47 -22 -89 -40 -93 -40 -4 0 -34 13
-67 29 -93 47 -609 293 -620 296 -5 1 -43 -9 -83 -24z"/>
<path d="M5650 5006 c-6 -8 -10 -25 -8 -38 2 -18 10 -24 37 -26 54 -5 81 5 81
31 0 13 -5 28 -12 35 -17 17 -83 15 -98 -2z"/>
<path d="M2680 2913 c0 -32 -3 -68 -6 -80 -6 -22 -4 -23 60 -23 58 0 70 3 91
25 35 34 34 86 -1 114 -20 16 -41 21 -85 21 l-59 0 0 -57z"/>
<path d="M4962 2918 l3 -53 53 -3 c67 -4 102 16 102 56 0 43 -17 52 -93 52
l-68 0 3 -52z"/>
<path d="M4966 2774 c-3 -9 -6 -31 -6 -49 0 -32 2 -34 47 -41 64 -9 114 5 132
38 14 24 14 28 -3 47 -16 18 -31 21 -91 21 -57 0 -74 -3 -79 -16z"/>
<path d="M6078 2901 l4 -71 61 0 c79 0 127 26 127 68 0 48 -31 66 -119 70
l-76 4 3 -71z"/>
</g>
</svg>
